<?xml version="1.0" encoding="UTF-8" standalone="no"?>
<!DOCTYPE svg PUBLIC "-//W3C//DTD SVG 1.1//EN" "http://www.w3.org/Graphics/SVG/1.1/DTD/svg11.dtd">
<!--Generated by Intaglio, www.PurgatoryDesign.com-->
<svg version="1.1" viewBox="0,0,576,734" width="576" height="734" xmlns="http://www.w3.org/2000/svg" xmlns:xlink="http://www.w3.org/1999/xlink" xmlns:intaglio="http://purgatorydesign.com/namespaces/intaglio" intaglio:grid="36,36,1,1,0.5,#9999bf,1,0,0,0" intaglio:guides="0.8,#f0f,1,1"><path fill="none" stroke="#000100" d="M162,324 L69,429"/><path fill="none" stroke="#000100" d="M162,324 C162,324,195.069,359.1,218,376.5 C234.42,388.96,246.165,396.628,265,405 C293.621,417.722,314.011,424.452,345,429 C375.053,433.411,426,429,426,429"/><path fill="none" stroke="#000100" d="M69,429 C69,429,95.9995,461.831,115.5,478 C131.475,491.245,143.631,498.346,162,508 C187.892,521.608,206.127,529.131,234,538 C263.302,547.324,283.5,552.09,314,556 C347.123,560.246,369.631,557.712,403,559 C411.627,559.333,426,560,426,560"/><path stroke="#000" d="M182.75,434.75 C182.75,437.926,180.176,440.5,177,440.5 C173.824,440.5,171.25,437.926,171.25,434.75 C171.25,431.574,173.824,429,177,429 C180.176,429,182.75,431.574,182.75,434.75 Z"/><path fill="#fffffe" stroke="#ff0004" stroke-width="2" d="M138,420 C140.209,402.327,156.327,389.791,174,392 C183.453,393.182,191.9,398.482,197.075,406.481"/><path fill="#fffffe" stroke="#ff0004" stroke-width="2" d="M197.075,406.481 C197.075,406.481,207.122,419.772,207,429 C206.885,437.709,204.315,445.157,197.075,450 C190.81,454.191,177,451,177,451"/><path fill="none" stroke="#ff0004" stroke-width="2" d="M138,420 C138,420,136.435,432.974,138,440.5 C140.873,454.312,143.908,464.213,153,475 C161.597,485.199,170.391,489.482,182.75,494.5 C212.92,506.75,235.672,507.107,268,511 C306.393,515.623,332.343,517.017,371,516 C396.999,515.316,440,509,440,509"/><path stroke="#000" d="M146,405.874 C146,408.083,144.209,409.874,142,409.874 C139.791,409.874,138,408.083,138,405.874 C138,403.665,139.791,401.874,142,401.874 C144.209,401.874,146,403.665,146,405.874 Z"/><text fill="#000100" font-family="Palatino" font-style="italic" font-size="18" transform="matrix(1,0,0,1,97.3154,427.171)" xml:space="preserve"><tspan kerning="0">Q(L</tspan><tspan font-style="normal" kerning="0">)</tspan></text><g><path fill="none" intaglio:arrow-end="1" stroke="#00f" stroke-width="3" d="M143.5,405.874 L207.481,334.604" intaglio:d="M143.5,405.874 L217,324"/><path fill="#00f" intaglio:omit="yes" d="M202.515,331.154 L217,324 L211.444,339.17"/></g><text fill="#000100" font-family="Palatino" font-style="italic" font-size="18" transform="matrix(1,0,0,1,206.815,354.671)" xml:space="preserve"><tspan kerning="0">Q'(L</tspan><tspan font-style="normal" kerning="0">)</tspan></text><path fill="none" stroke="#000100" d="M171.25,220 L264,303"/><path fill="none" stroke="#ff0004" stroke-width="2" d="M217.625,261.5 C217.625,261.5,254.848,212.76,280,186 C296.535,168.408,308.344,157.325,327,142 C352.331,121.192,369.29,106.824,398,91 C412.881,82.798,423.618,78.5096,440,74 C454.266,70.0727,464.204,67.8371,479,68 C485.473,68.0713,490.109,68.3155,496,71 C505.22,75.2016,510.857,79.9424,517,88 C520.97,93.2083,522.055,97.7464,524,104 C530.465,124.787,532.484,139.377,535,161 C538.167,188.214,537.437,206.608,538,234 C538.828,274.322,538,301.218,538,341.549 C538,370.968,538.996,390.598,538,420 C537.812,425.541,538.1,429.316,537,434.75 C535.629,441.519,534.354,446.125,531,452.162 C527.246,458.918,523.602,462.831,518,468.156 C505.875,479.681,496.822,486.744,482,494.5 C467.237,502.225,440,509,440,509"/><path fill="none" stroke="#000100" d="M171.25,220 C171.25,220,190.774,192.416,207,181 C220.471,171.522,231.353,167.251,247.5,164 C268.638,159.743,283.446,163.41,305,164 C332.418,164.75,350.947,172.322,378.033,168 C392.326,165.719,401.277,160.9,414,154 C429.826,145.417,453,126,453,126"/><path fill="none" stroke="#000100" d="M264,303 C264,303,293.454,280.367,304,261.5 C309.952,250.852,311.242,242.167,312.125,230 C313.927,205.171,306.556,188.845,305,164 C303.664,142.664,299.356,127.868,304,107 C308.444,87.0278,315.809,74.4325,328,58 C336.853,46.0666,357,31,357,31"/><path stroke="#000" d="M221.625,261.5 C221.625,263.709,219.834,265.5,217.625,265.5 C215.416,265.5,213.625,263.709,213.625,261.5 C213.625,259.291,215.416,257.5,217.625,257.5 C219.834,257.5,221.625,259.291,221.625,261.5 Z"/><text fill="#000100" font-family="Palatino" font-style="italic" font-size="18" transform="matrix(1,0,0,1,229.315,266.167)" xml:space="preserve"><tspan kerning="0">Q(-L</tspan><tspan font-style="normal" kerning="0">)</tspan></text><path fill="none" stroke="#ff0004" stroke-width="2" stroke-dasharray="2" d="M217.625,261.5 C217.625,261.5,210.599,272.537,207,279.5 C200.679,291.727,196.941,300.153,192,313 C187.96,323.504,185.095,330.542,182.75,341.549 C180.912,350.176,180.924,356.142,180.25,364.937 C178.247,391.069,177,434.75,177,434.75"/><g><path fill="none" intaglio:arrow-end="1" stroke="#7d00fd" stroke-width="3" d="M217.625,261.5 L277.955,314.586" intaglio:d="M217.625,261.5 L288.653,324"/><path fill="#7d00fd" intaglio:omit="yes" d="M281.356,309.587 L288.653,324 L273.428,318.595"/></g><text fill="#000100" font-family="Palatino" font-style="italic" font-size="18" transform="matrix(1,0,0,1,288.653,324)" xml:space="preserve"><tspan>Y </tspan><tspan baseline-shift="super">-</tspan><tspan>(-L)</tspan></text><g><path fill="none" intaglio:arrow-end="1" stroke="#00ff18" stroke-width="3" d="M217.625,261.5 L129.739,264.942" intaglio:d="M217.625,261.5 L115.5,265.5"/><path fill="#00ff18" intaglio:omit="yes" d="M130.723,270.908 L115.5,265.5 L130.254,258.918"/></g><text fill="#000100" font-family="Palatino" font-style="italic" font-size="18" transform="matrix(1,0,0,1,66.7764,270.604)" xml:space="preserve"><tspan>Ψ(-L)</tspan></text><text fill="#000100" font-family="Palatino" font-style="italic" font-size="18" transform="matrix(1,0,0,1,342,418.128)" xml:space="preserve"><tspan>W</tspan><tspan baseline-shift="super">s</tspan><tspan>(0)</tspan></text><text fill="#000100" font-family="Palatino" font-style="italic" font-size="18" transform="matrix(1,0,0,1,216.755,154.628)" xml:space="preserve"><tspan>W</tspan><tspan baseline-shift="super">u</tspan><tspan>(0)</tspan></text></svg>
