<?xml version="1.0" encoding="UTF-8" standalone="no"?>
<!DOCTYPE svg PUBLIC "-//W3C//DTD SVG 1.1//EN" "http://www.w3.org/Graphics/SVG/1.1/DTD/svg11.dtd">
<!--Generated by Intaglio, www.PurgatoryDesign.com-->
<svg version="1.1" viewBox="0,0,576,734" width="576" height="734" xmlns="http://www.w3.org/2000/svg" xmlns:xlink="http://www.w3.org/1999/xlink" xmlns:intaglio="http://purgatorydesign.com/namespaces/intaglio" intaglio:grid="36,36,1,1,0.5,#9999bf,1,0,0,0" intaglio:guides="0.8,#f0f,1,1"><path fill="#fffffe" stroke="#f00" stroke-width="2" d="M85,187 C85,187,127.498,136.001,160,114 C175.293,103.648,187.166,98.7916,205,94 C235.595,85.7797,257.4,82.7444,289,85 C310.229,86.5153,325.571,88.3546,344,99 C361.682,109.214,372.862,119.74,382,138 C390.664,155.312,390,189,390,189"/><path fill="#fffffe" stroke="#f00" stroke-width="2" d="M85,191 C85,191,127.498,241.999,160,264 C175.293,274.352,187.166,279.208,205,284 C235.595,292.22,257.4,295.256,289,293 C310.229,291.485,325.571,289.645,344,279 C361.682,268.786,372.862,258.26,382,240 C390.664,222.688,390,189,390,189"/><path stroke="#000" d="M92,189.75 C92,192.926,89.4256,195.5,86.25,195.5 C83.0744,195.5,80.5,192.926,80.5,189.75 C80.5,186.574,83.0744,184,86.25,184 C89.4256,184,92,186.574,92,189.75 Z"/><path fill="none" stroke="#000100" d="M86.25,129.5 L86.25,246"/><path fill="none" stroke="#000100" d="M86.25,129.5 C86.25,129.5,110.095,103.059,126.696,89.7801 C137.163,81.4086,144.657,76.2278,156.729,70.4046 C168.99,64.4896,177.912,62.0794,191.12,58.7793 C211.661,53.6468,225.723,51.3073,246.825,49.5759 C267.644,47.8676,281.804,46.9669,302.529,49.5759 C318.528,51.5898,329.028,54.7356,344.187,60.2324 C352.512,63.2514,365.5,70.4046,365.5,70.4046"/><path fill="none" stroke="#000100" d="M86.25,246 C86.25,246,110.095,206.286,126.696,186.342 C137.163,173.768,144.657,165.987,156.729,157.24 C168.99,148.356,177.912,144.736,191.12,139.779 C211.661,132.07,225.723,128.557,246.825,125.956 C267.644,123.39,281.804,122.037,302.529,125.956 C318.528,128.981,329.028,133.706,344.187,141.962 C352.512,146.496,365.5,157.24,365.5,157.24"/><path fill="none" stroke="#000100" d="M365.5,70.4046 L365.5,157.24"/><path fill="none" stroke="#000100" d="M50,210 L122,168"/><path fill="none" stroke="#000100" d="M122,168 C122,168,136.835,185.634,146.5,195.5 C156.527,205.736,163.014,212.933,174.5,221.5 C188.986,232.305,198.978,239.928,216,246 C235.831,253.074,250.459,253.73,271.5,254.5 C285.785,255.023,295.42,253.969,309.5,251.5 C317.162,250.157,322.472,249.333,329.5,246 C335.94,242.946,340.59,240.6,345,235 C351.247,227.067,352.995,219.896,355,210 C356.936,200.442,358.098,193.399,355.5,184 C353.615,177.18,350.381,173.122,345.5,168 C340.619,162.878,330,157.24,330,157.24"/><path fill="none" stroke="#000100" d="M50,210 C50,210,76.9772,246.923,96.5,266 C108.475,277.702,117.483,284.564,131.5,293.722 C149.445,305.446,161.81,313.302,182,320.5 C202.713,327.885,217.637,329.664,239.502,332 C263.555,334.57,280.043,336.347,304,333 C324.563,330.127,338.345,326.105,357.005,317 C367.523,311.868,373.874,306.909,382.5,299 C392.994,289.379,398.976,281.76,407,270 C413.883,259.913,418.6,252.933,422.5,241.361 C426.793,228.621,427.343,219.363,428,205.935 C428.816,189.265,429.618,177.673,425.5,161.5 C421.61,146.22,416.583,136.389,407.5,123.5 C398.488,110.712,378,94,378,94"/><path fill="none" stroke="#000100" d="M330,157.24 L378,94"/><path stroke="#000" d="M369.5,113.822 C369.5,116.032,367.709,117.822,365.5,117.822 C363.291,117.822,361.5,116.032,361.5,113.822 C361.5,111.613,363.291,109.822,365.5,109.822 C367.709,109.822,369.5,111.613,369.5,113.822 Z"/><g><path fill="none" intaglio:arrow-end="1" stroke="#0049fd" stroke-width="3" d="M365.5,113.822 L445.027,211.93" intaglio:d="M365.5,113.822 L454,223"/><path fill="#0049fd" intaglio:omit="yes" d="M449.215,207.569 L454,223 L439.893,215.126"/></g><g><path fill="none" intaglio:arrow-end="1" stroke="#00ff18" stroke-width="3" d="M365.5,113.822 L283.682,186.068" intaglio:d="M365.5,113.822 L273,195.5"/><path fill="#00ff18" intaglio:omit="yes" d="M288.215,190.069 L273,195.5 L280.273,181.074"/></g><g fill="#000100" font-family="Palatino" font-style="italic" font-size="18" transform="matrix(1,0,0,1,158,44.1526)" intaglio:type="text" xml:space="preserve"><text><tspan>W</tspan><tspan baseline-shift="super">u</tspan><tspan>(0)</tspan></text></g><g fill="#000100" font-family="Palatino" font-style="italic" font-size="18" transform="matrix(1,0,0,1,167,349.458)" intaglio:type="text" xml:space="preserve"><text><tspan>W</tspan><tspan baseline-shift="super">s</tspan><tspan>(0)</tspan></text></g><text fill="#000100" font-family="Palatino" font-style="italic" font-size="18" transform="matrix(1,0,0,1,71.2539,183.657)" xml:space="preserve"><tspan>0</tspan></text><text fill="#000100" font-family="Palatino" font-style="italic" font-size="18" transform="matrix(1,0,0,1,313.297,118.617)" xml:space="preserve"><tspan>Q(0)</tspan></text><g fill="#000100" font-family="Palatino" font-style="italic" font-size="18" transform="matrix(1,0,0,1,453.297,236.263)" intaglio:type="text" xml:space="preserve"><text><tspan>Q'(0</tspan><tspan>)</tspan></text></g><text fill="#000100" font-family="Palatino" font-style="italic" font-size="18" transform="matrix(1,0,0,1,247.004,210.593)" xml:space="preserve"><tspan>Ψ(0)</tspan></text><path stroke="#000" d="M147.75,250.629 C147.75,252.838,145.959,254.629,143.75,254.629 C141.541,254.629,139.75,252.838,139.75,250.629 C139.75,248.42,141.541,246.629,143.75,246.629 C145.959,246.629,147.75,248.42,147.75,250.629 Z"/><path stroke="#000" d="M147.75,125.62 C147.75,127.829,145.959,129.62,143.75,129.62 C141.541,129.62,139.75,127.829,139.75,125.62 C139.75,123.411,141.541,121.62,143.75,121.62 C145.959,121.62,147.75,123.411,147.75,125.62 Z"/><text fill="#000100" font-family="Palatino" font-style="italic" font-size="18" transform="matrix(1,0,0,1,152.339,251.025)" xml:space="preserve"><tspan kerning="0">Q(L</tspan><tspan kerning="0">)</tspan></text><text fill="#000100" font-family="Palatino" font-style="italic" font-size="18" transform="matrix(1,0,0,1,152.339,134.795)" xml:space="preserve"><tspan kerning="0">Q(-L</tspan><tspan kerning="0">)</tspan></text></svg>
