<?xml version="1.0" encoding="UTF-8" standalone="no"?>
<!DOCTYPE svg PUBLIC "-//W3C//DTD SVG 1.1//EN" "http://www.w3.org/Graphics/SVG/1.1/DTD/svg11.dtd">
<!--Generated by Intaglio, www.PurgatoryDesign.com-->
<svg version="1.1" viewBox="0,0,576,432" width="576" height="432" xmlns="http://www.w3.org/2000/svg" xmlns:xlink="http://www.w3.org/1999/xlink" xmlns:intaglio="http://purgatorydesign.com/namespaces/intaglio" intaglio:grid="36,36,4,4,0.5,#9999bf,1,0,0,0" intaglio:guides="0.8,#f0f,1,1"><image xlink:href="1.pdf" width="612" height="792" transform="matrix(1,0,0,1,-85.5625,-178.175)"/><path fill="none" stroke="#000100" stroke-width="3" d="M436.812,138.191 L508.812,138.191"/><path fill="none" stroke="#000100" stroke-width="3" d="M473.438,101.96 L473.438,173.96"/><path fill="#0049fd" stroke="#0049fd" d="M460.938,137.96 C460.938,141.826,457.803,144.96,453.938,144.96 C450.072,144.96,446.938,141.826,446.938,137.96 C446.938,134.094,450.072,130.96,453.938,130.96 C457.803,130.96,460.938,134.094,460.938,137.96 Z"/><path fill="#0049fd" stroke="#0049fd" d="M499.438,138.191 C499.438,142.057,496.303,145.191,492.438,145.191 C488.572,145.191,485.438,142.057,485.438,138.191 C485.438,134.325,488.572,131.191,492.438,131.191 C496.303,131.191,499.438,134.325,499.438,138.191 Z"/><path fill="none" stroke="#000100" stroke-width="3" d="M436.812,238.143 L508.812,238.143"/><path fill="none" stroke="#000100" stroke-width="3" d="M472.812,202.143 L472.812,274.143"/><path fill="#ff0004" stroke="#ff0004" d="M479.812,221.893 C479.812,225.759,476.678,228.893,472.812,228.893 C468.947,228.893,465.812,225.759,465.812,221.893 C465.812,218.027,468.947,214.893,472.812,214.893 C476.678,214.893,479.812,218.027,479.812,221.893 Z"/><path fill="#ff0004" stroke="#ff0004" d="M479.812,252.643 C479.812,256.509,476.678,259.643,472.812,259.643 C468.947,259.643,465.812,256.509,465.812,252.643 C465.812,248.777,468.947,245.643,472.812,245.643 C476.678,245.643,479.812,248.777,479.812,252.643 Z"/><path stroke="#000" d="M325.266,119.187 C325.266,123.938,321.53,127.79,316.922,127.79 C312.314,127.79,308.578,123.938,308.578,119.187 C308.578,114.436,312.314,110.585,316.922,110.585 C321.53,110.585,325.266,114.436,325.266,119.187 Z"/><path stroke="#000" d="M123.906,321.575 C123.906,326.326,120.171,330.177,115.562,330.177 C110.954,330.177,107.219,326.326,107.219,321.575 C107.219,316.824,110.954,312.972,115.562,312.972 C120.171,312.972,123.906,316.824,123.906,321.575 Z"/><path stroke="#000" d="M225.656,217.825 C225.656,222.576,221.921,226.427,217.312,226.427 C212.704,226.427,208.969,222.576,208.969,217.825 C208.969,213.074,212.704,209.222,217.312,209.222 C221.921,209.222,225.656,213.074,225.656,217.825 Z"/><path fill="none" stroke="#000100" stroke-width="3" d="M437.438,341.953 L509.438,341.953"/><path fill="none" stroke="#000100" stroke-width="3" d="M474.062,305.722 L474.062,377.722"/><path fill="#0049fd" stroke="#0049fd" d="M500.313,341.722 C500.313,345.588,497.178,348.722,493.313,348.722 C489.447,348.722,486.313,345.588,486.313,341.722 C486.313,337.856,489.447,334.722,493.313,334.722 C497.178,334.722,500.313,337.856,500.313,341.722 Z"/><path fill="#0049fd" stroke="#0049fd" d="M462.063,341.953 C462.063,345.819,458.928,348.953,455.063,348.953 C451.197,348.953,448.063,345.819,448.063,341.953 C448.063,338.087,451.197,334.953,455.063,334.953 C458.928,334.953,462.063,338.087,462.063,341.953 Z"/></svg>
