<?xml version="1.0" encoding="UTF-8" standalone="no"?>
<!DOCTYPE svg PUBLIC "-//W3C//DTD SVG 1.1//EN" "http://www.w3.org/Graphics/SVG/1.1/DTD/svg11.dtd">
<!--Generated by Intaglio, www.PurgatoryDesign.com-->
<svg version="1.1" viewBox="0,0,576,734" width="576" height="734" xmlns="http://www.w3.org/2000/svg" xmlns:xlink="http://www.w3.org/1999/xlink" xmlns:intaglio="http://purgatorydesign.com/namespaces/intaglio" intaglio:grid="36,36,16,16,0.5,#9999bf,1,0,0,1" intaglio:guides="0.8,#f0f,1,1"><path fill="none" stroke="#000100" stroke-width="3" d="M252,2.84217e-14 L252,288"/><path fill="none" stroke="#000100" stroke-width="3" d="M108,144 L396,144"/><path fill="#d20000" stroke="#d20000" stroke-width="3" d="M261,113.4 C261,118.371,256.971,122.4,252,122.4 C247.029,122.4,243,118.371,243,113.4 C243,108.429,247.029,104.4,252,104.4 C256.971,104.4,261,108.429,261,113.4 Z"/><path fill="#d20000" stroke="#d20000" stroke-width="3" d="M261.45,172.8 C261.45,177.771,257.421,181.8,252.45,181.8 C247.479,181.8,243.45,177.771,243.45,172.8 C243.45,167.829,247.479,163.8,252.45,163.8 C257.421,163.8,261.45,167.829,261.45,172.8 Z"/><path fill="#0000ca" stroke="#0000ca" stroke-width="3" d="M261,216 C261,220.971,256.971,225,252,225 C247.029,225,243,220.971,243,216 C243,211.029,247.029,207,252,207 C256.971,207,261,211.029,261,216 Z"/><path fill="#0000ca" stroke="#0000ca" stroke-width="3" d="M261,279 C261,283.971,256.971,288,252,288 C247.029,288,243,283.971,243,279 C243,274.029,247.029,270,252,270 C256.971,270,261,274.029,261,279 Z"/><path fill="#0000ca" stroke="#0000ca" stroke-width="3" d="M261,9 C261,13.9706,256.971,18,252,18 C247.029,18,243,13.9706,243,9 C243,4.02944,247.029,-5.68434e-14,252,-5.68434e-14 C256.971,-5.68434e-14,261,4.02944,261,9 Z"/><path fill="#0000ca" stroke="#0000ca" stroke-width="3" d="M261,72 C261,76.9706,256.971,81,252,81 C247.029,81,243,76.9706,243,72 C243,67.0294,247.029,63,252,63 C256.971,63,261,67.0294,261,72 Z"/><text fill="#000100" font-family="Helvetica" font-weight="bold" font-size="36" transform="matrix(1,0,0,1,238.5,157.5)" xml:space="preserve"><tspan>X</tspan></text></svg>
