<?xml version="1.0" encoding="UTF-8" standalone="no"?>
<!DOCTYPE svg PUBLIC "-//W3C//DTD SVG 1.1//EN" "http://www.w3.org/Graphics/SVG/1.1/DTD/svg11.dtd">
<!--Generated by Intaglio, www.PurgatoryDesign.com-->
<svg version="1.1" viewBox="0,0,576,734" width="576" height="734" xmlns="http://www.w3.org/2000/svg" xmlns:xlink="http://www.w3.org/1999/xlink" xmlns:intaglio="http://purgatorydesign.com/namespaces/intaglio" intaglio:grid="36,36,10,10,0.5,#9999bf,1,0,0,0" intaglio:guides="0.8,#f0f,1,1"><g><path fill="none" intaglio:arrow-start="8" intaglio:arrow-end="8" stroke="#000100" d="M83.75,145.2 L169.75,145.2"/><path fill="none" intaglio:omit="yes" stroke="#000100" d="M83.75,149.7 L83.75,140.7 M91.75,149.2 L83.75,145.25 L83.75,145.15 L91.75,141.2"/><path fill="none" intaglio:omit="yes" stroke="#000100" d="M169.75,140.7 L169.75,149.7 M161.75,141.2 L169.75,145.15 L169.75,145.25 L161.75,149.2"/></g><g><path fill="none" intaglio:arrow-start="8" intaglio:arrow-end="8" stroke="#000100" d="M170.269,145.2 L245.272,145.2"/><path fill="none" intaglio:omit="yes" stroke="#000100" d="M170.269,149.7 L170.269,140.7 M178.269,149.2 L170.269,145.25 L170.269,145.15 L178.269,141.2"/><path fill="none" intaglio:omit="yes" stroke="#000100" d="M245.272,140.7 L245.272,149.7 M237.272,141.2 L245.272,145.15 L245.272,145.25 L237.272,149.2"/></g><g><path fill="none" intaglio:arrow-start="8" intaglio:arrow-end="8" stroke="#000100" d="M407.2,145.2 L478.7,145.2"/><path fill="none" intaglio:omit="yes" stroke="#000100" d="M407.2,149.7 L407.2,140.7 M415.2,149.2 L407.2,145.25 L407.2,145.15 L415.2,141.2"/><path fill="none" intaglio:omit="yes" stroke="#000100" d="M478.7,140.7 L478.7,149.7 M470.7,141.2 L478.7,145.15 L478.7,145.25 L470.7,149.2"/></g><path fill="none" stroke="#003acb" stroke-width="2" stroke-dasharray="2" d="M301.262,234.988 L352,234.988"/><g><path fill="none" intaglio:arrow-end="1" stroke="#ff0004" stroke-width="3" d="M304.772,100.119 L304.772,125.469" intaglio:d="M304.772,100.119 L304.772,139.719"/><path fill="#ff0004" intaglio:omit="yes" d="M310.772,124.719 L304.772,139.719 L298.772,124.719"/></g><text fill="#000100" font-family="Helvetica" font-size="18" transform="matrix(1,0,0,1,112.739,130.291)" xml:space="preserve"><tspan>2X</tspan><tspan baseline-shift="sub">1</tspan></text><text fill="#000100" font-family="Helvetica" font-size="18" transform="matrix(1,0,0,1,192.719,130.291)" xml:space="preserve"><tspan>2X</tspan><tspan baseline-shift="sub">2</tspan></text><text fill="#000100" font-family="Helvetica" font-size="18" transform="matrix(1,0,0,1,422.594,130.291)" xml:space="preserve"><tspan>2X</tspan><tspan baseline-shift="sub">n-1</tspan></text><image xlink:href="8.pdf" width="430.081" height="315.393" transform="matrix(0.260372,0,0,0.260372,40.3,156)"/><image xlink:href="8.pdf" width="430.081" height="315.393" transform="matrix(0.260372,0,0,0.260372,248.781,6)"/><image xlink:href="8.pdf" width="430.081" height="315.393" transform="matrix(0.260372,0,0,0.260372,112.3,156)"/><image xlink:href="8.pdf" width="430.081" height="315.393" transform="matrix(0.260372,0,0,0.260372,189.281,156)"/><image xlink:href="8.pdf" width="430.081" height="315.393" transform="matrix(0.260372,0,0,0.260372,351.209,156)"/><image xlink:href="8.pdf" width="430.081" height="315.393" transform="matrix(0.260372,0,0,0.260372,426.908,156)"/><image xlink:href="8.pdf" width="430.081" height="315.393" transform="matrix(0.260372,0,0,0.260372,33.8,156)"/><path fill="#fffffe" stroke="#000100" stroke-width="0.25" d="M532.25,263.75 C532.246,263.978,532.239,264.206,532.229,264.434"/><path fill="none" stroke="#003acb" stroke-width="2" stroke-dasharray="2" d="M538.889,234.988 L574,234.988"/><path fill="none" stroke="#003acb" stroke-width="2" stroke-dasharray="2" d="M5.1892,234.988 L33.8,234.988"/></svg>
