<?xml version="1.0" encoding="UTF-8" standalone="no"?>
<!DOCTYPE svg PUBLIC "-//W3C//DTD SVG 1.1//EN" "http://www.w3.org/Graphics/SVG/1.1/DTD/svg11.dtd">
<!--Generated by Intaglio, www.PurgatoryDesign.com-->
<svg version="1.1" viewBox="0,0,576,734" width="576" height="734" xmlns="http://www.w3.org/2000/svg" xmlns:xlink="http://www.w3.org/1999/xlink" xmlns:intaglio="http://purgatorydesign.com/namespaces/intaglio" intaglio:grid="36,36,1,1,0.5,#9999bf,1,0,0,0" intaglio:guides="0.8,#f0f,1,1"><g><path fill="none" intaglio:arrow-end="1" stroke="#00ff18" stroke-width="3" d="M252,218 L151.6,85.362" intaglio:d="M252,218 L143,74"/><path fill="#00ff18" intaglio:omit="yes" d="M147.269,89.5812 L143,74 L156.837,82.3388"/></g><g><path fill="none" intaglio:arrow-end="1" stroke="#0049fd" stroke-width="3" d="M252,218 L376.96,116.01" intaglio:d="M252,218 L388,107"/><path fill="#0049fd" intaglio:omit="yes" d="M372.585,111.836 L388,107 L380.173,121.133"/></g><text fill="#000100" font-family="Palatino" font-style="italic" font-size="18" transform="matrix(1,0,0,1,117.776,70.2119)" xml:space="preserve"><tspan>Ψ(-x)</tspan></text><text fill="#000100" font-family="Palatino" font-style="italic" font-size="18" transform="matrix(1,0,0,1,386.339,103.212)" xml:space="preserve"><tspan kerning="0">Q'(x</tspan><tspan font-style="normal" kerning="0">)</tspan></text><g><path fill="#fffffe" intaglio:arrow-end="1" intaglio:stroke="#000100" stroke-width="2" d="M183,131 C195.878,120.787,210.862,113.559,226.872,109.84"/><path fill="none" intaglio:omit="yes" stroke="#000100" stroke-width="2" d="M183,131 C192.747,123.27,203.723,117.233,215.47,113.14"/><path fill="#000100" intaglio:omit="yes" d="M216.577,118.052 C219.823,115.092,223.267,112.351,226.872,109.84 C222.342,109.144,217.767,108.749,213.186,108.645"/></g><g><path fill="#fffffe" intaglio:arrow-end="1" intaglio:stroke="#000100" stroke-width="2" d="M339,146 C329.538,134.566,318.414,124.617,306,116.484"/><path fill="none" intaglio:omit="yes" stroke="#000100" stroke-width="2" d="M339,146 C332.072,137.629,324.246,130.044,315.662,123.382"/><path fill="#000100" intaglio:omit="yes" d="M319.234,119.834 C314.892,118.459,310.453,117.422,306,116.484 C308.503,120.129,310.941,123.828,313.069,127.708"/></g><text fill="#000100" font-family="Palatino" font-style="italic" font-size="18" transform="matrix(1,0,0,1,214.928,103.317)" xml:space="preserve"><tspan>2π/β</tspan></text><text fill="#000100" font-family="Palatino" font-style="italic" font-size="18" transform="matrix(1,0,0,1,300.937,112.907)" xml:space="preserve"><tspan>2π/β</tspan></text></svg>
