<?xml version="1.0" encoding="UTF-8" standalone="no"?>
<!DOCTYPE svg PUBLIC "-//W3C//DTD SVG 1.1//EN" "http://www.w3.org/Graphics/SVG/1.1/DTD/svg11.dtd">
<!--Generated by Intaglio, www.PurgatoryDesign.com-->
<svg version="1.1" viewBox="0,0,576,734" width="576" height="734" xmlns="http://www.w3.org/2000/svg" xmlns:xlink="http://www.w3.org/1999/xlink" xmlns:intaglio="http://purgatorydesign.com/namespaces/intaglio" intaglio:grid="36,36,1,1,0.5,#9999bf,1,0,0,0" intaglio:guides="0.8,#f0f,1,1"><g><path fill="none" intaglio:arrow-end="1" stroke="#0049fd" stroke-width="3" d="M108,57.75 L108,35.625" intaglio:d="M108,57.75 L108,21.375"/><path fill="#0049fd" intaglio:omit="yes" d="M102,36.375 L108,21.375 L114,36.375"/></g><g><path fill="none" intaglio:arrow-end="1" stroke="#00ff18" stroke-width="3" d="M180.25,57.75 L180.25,35.625" intaglio:d="M180.25,57.75 L180.25,21.375"/><path fill="#00ff18" intaglio:omit="yes" d="M174.25,36.375 L180.25,21.375 L186.25,36.375"/></g><g><path fill="none" intaglio:arrow-start="1" stroke="#0049fd" stroke-width="3" d="M315.25,57.75 L337.25,57.75" intaglio:d="M301,57.75 L337.25,57.75"/><path fill="#0049fd" intaglio:omit="yes" d="M316,63.75 L301,57.75 L316,51.75"/></g><g><path fill="none" intaglio:arrow-end="1" stroke="#00ff18" stroke-width="3" d="M410,57.75 L432,57.75" intaglio:d="M410,57.75 L446.25,57.75"/><path fill="#00ff18" intaglio:omit="yes" d="M431.25,51.75 L446.25,57.75 L431.25,63.75"/></g><g><path fill="none" intaglio:arrow-start="1" stroke="#0049fd" stroke-width="3" d="M109.011,150.688 L109.011,128.562" intaglio:d="M109.011,164.938 L109.011,128.562"/><path fill="#0049fd" intaglio:omit="yes" d="M115.011,149.938 L109.011,164.938 L103.011,149.938"/></g><g><path fill="none" intaglio:arrow-start="1" stroke="#00ff18" stroke-width="3" d="M181.261,150.688 L181.261,128.562" intaglio:d="M181.261,164.938 L181.261,128.562"/><path fill="#00ff18" intaglio:omit="yes" d="M187.261,149.938 L181.261,164.938 L175.261,149.938"/></g><g><path fill="none" intaglio:arrow-end="1" stroke="#0049fd" stroke-width="3" d="M338.261,128.562 L358.261,128.562" intaglio:d="M338.261,128.562 L372.511,128.562"/><path fill="#0049fd" intaglio:omit="yes" d="M357.511,122.562 L372.511,128.562 L357.511,134.562"/></g><g><path fill="none" intaglio:arrow-end="1" stroke="#00ff18" stroke-width="3" d="M411.011,128.562 L390.761,128.562" intaglio:d="M411.011,128.562 L376.511,128.562"/><path fill="#00ff18" intaglio:omit="yes" d="M391.511,134.562 L376.511,128.562 L391.511,122.562"/></g><path stroke="#000100" d="M112.011,128.875 C112.011,130.532,110.668,131.875,109.011,131.875 C107.354,131.875,106.011,130.532,106.011,128.875 C106.011,127.218,107.354,125.875,109.011,125.875 C110.668,125.875,112.011,127.218,112.011,128.875 Z"/><path stroke="#000100" d="M184.261,128.5 C184.261,130.157,182.918,131.5,181.261,131.5 C179.604,131.5,178.261,130.157,178.261,128.5 C178.261,126.843,179.604,125.5,181.261,125.5 C182.918,125.5,184.261,126.843,184.261,128.5 Z"/><path stroke="#000100" d="M341.011,128.562 C341.011,130.219,339.668,131.562,338.011,131.562 C336.354,131.562,335.011,130.219,335.011,128.562 C335.011,126.906,336.354,125.562,338.011,125.562 C339.668,125.562,341.011,126.906,341.011,128.562 Z"/><path stroke="#000100" d="M340,57.75 C340,59.4069,338.657,60.75,337,60.75 C335.343,60.75,334,59.4069,334,57.75 C334,56.0931,335.343,54.75,337,54.75 C338.657,54.75,340,56.0931,340,57.75 Z"/><path stroke="#000100" d="M183.25,57.75 C183.25,59.4069,181.907,60.75,180.25,60.75 C178.593,60.75,177.25,59.4069,177.25,57.75 C177.25,56.0931,178.593,54.75,180.25,54.75 C181.907,54.75,183.25,56.0931,183.25,57.75 Z"/><path stroke="#000100" d="M412.875,57.75 C412.875,59.4069,411.532,60.75,409.875,60.75 C408.218,60.75,406.875,59.4069,406.875,57.75 C406.875,56.0931,408.218,54.75,409.875,54.75 C411.532,54.75,412.875,56.0931,412.875,57.75 Z"/><path stroke="#000100" d="M413.886,128.562 C413.886,130.219,412.543,131.562,410.886,131.562 C409.229,131.562,407.886,130.219,407.886,128.562 C407.886,126.906,409.229,125.562,410.886,125.562 C412.543,125.562,413.886,126.906,413.886,128.562 Z"/><path stroke="#000100" d="M111,57.75 C111,59.4069,109.657,60.75,108,60.75 C106.343,60.75,105,59.4069,105,57.75 C105,56.0931,106.343,54.75,108,54.75 C109.657,54.75,111,56.0931,111,57.75 Z"/><text fill="#000100" font-family="Palatino" font-style="italic" font-size="18" transform="matrix(1,0,0,1,124.5,84.5)" xml:space="preserve"><tspan>x = L</tspan></text><g fill="#000100" font-family="Palatino" font-style="italic" font-size="18" transform="matrix(1,0,0,1,326.5,82.8301)" intaglio:type="text" xml:space="preserve"><text><tspan>x = L + </tspan><tspan>π/2β</tspan></text></g><g fill="#000100" font-family="Palatino" font-style="italic" font-size="18" transform="matrix(1,0,0,1,96.5947,189.25)" intaglio:type="text" xml:space="preserve"><text><tspan>x = L + </tspan><tspan>π/β</tspan></text></g><g fill="#000100" font-family="Palatino" font-style="italic" font-size="18" transform="matrix(1,0,0,1,317.5,189.25)" intaglio:type="text" xml:space="preserve"><text><tspan>x = L + 3</tspan><tspan>π/2β</tspan></text></g><text fill="#000100" font-family="Palatino" font-style="italic" font-size="18" transform="matrix(1,0,0,1,193.185,45.2139)" xml:space="preserve"><tspan>Ψ(-x)</tspan></text><text fill="#000100" font-family="Palatino" font-style="italic" font-size="18" transform="matrix(1,0,0,1,55.6338,44.6953)" xml:space="preserve"><tspan kerning="0">Q'(x</tspan><tspan font-style="normal" kerning="0">)</tspan></text></svg>
