<?xml version="1.0" encoding="UTF-8" standalone="no"?>
<!DOCTYPE svg PUBLIC "-//W3C//DTD SVG 1.1//EN" "http://www.w3.org/Graphics/SVG/1.1/DTD/svg11.dtd">
<!--Generated by Intaglio, www.PurgatoryDesign.com-->
<svg version="1.1" viewBox="0,0,576,734" width="576" height="734" xmlns="http://www.w3.org/2000/svg" xmlns:xlink="http://www.w3.org/1999/xlink" xmlns:intaglio="http://purgatorydesign.com/namespaces/intaglio" intaglio:grid="36,36,1,1,0.5,#9999bf,1,0,0,0" intaglio:guides="0.8,#f0f,1,1"><image xlink:href="1.pdf" width="560" height="420" transform="matrix(1,0,0,1,4,-14)"/><g><path fill="none" intaglio:arrow-start="8" intaglio:arrow-end="8" stroke="#ff0004" stroke-width="2" d="M293,49 L336,48"/><path fill="none" intaglio:omit="yes" stroke="#ff0004" stroke-width="2" d="M293.131,54.6235 L292.869,43.3765 M303.114,53.7662 L293.001,49.0625 L292.999,48.9375 L302.881,43.7689"/><path fill="none" intaglio:omit="yes" stroke="#ff0004" stroke-width="2" d="M335.869,42.3765 L336.131,53.6235 M325.886,43.2338 L335.999,47.9375 L336.001,48.0625 L326.119,53.2311"/></g><g><path fill="none" intaglio:arrow-start="8" intaglio:arrow-end="8" stroke="#ff0004" stroke-width="2" d="M336,48 L467,48.5"/><path fill="none" intaglio:omit="yes" stroke="#ff0004" stroke-width="2" d="M335.979,53.625 L336.021,42.375 M345.981,53.0381 L336,48.0625 L336,47.9375 L346.019,43.0382"/><path fill="none" intaglio:omit="yes" stroke="#ff0004" stroke-width="2" d="M467.021,42.875 L466.979,54.125 M457.019,43.4619 L467,48.4375 L467,48.5625 L456.981,53.4618"/></g><text font-family="Helvetica" font-size="18" transform="matrix(1,0,0,1,305.126,39)" xml:space="preserve"><tspan>X</tspan><tspan baseline-shift="sub">0</tspan></text><text font-family="Helvetica" font-size="18" transform="matrix(1,0,0,1,392.591,39)" xml:space="preserve"><tspan>X</tspan><tspan baseline-shift="sub">1</tspan></text></svg>
